<svg width="900" height="365" viewBox="0 0 900 365" xmlns="http://www.w3.org/2000/svg" font-family="Segoe UI, sans-serif">
<defs>
<linearGradient id="syncedGrad" x1="0" y1="0" x2="0" y2="1">
<stop offset="0%" stop-color="#2ecc71"/>
<stop offset="100%" stop-color="#27ae60"/>
</linearGradient>
<linearGradient id="unsyncedGrad" x1="0" y1="0" x2="0" y2="1">
<stop offset="0%" stop-color="#e74c3c"/>
<stop offset="100%" stop-color="#c0392b"/>
</linearGradient>
<filter id="shadow" x="-50%" y="-50%" width="200%" height="200%">
<feDropShadow dx="1" dy="1" stdDeviation="1" flood-color="#888"/>
</filter>
</defs>
<rect width="100%" height="100%" fill="#f5f7fa"/>
<text x="30" y="35" font-size="24" font-weight="bold" fill="#2c3e50">NUR Sync Status</text>
<text x="30" y="65" font-size="16" font-weight="bold" fill="#2c3e50">Latest:</text>
<circle cx="100" cy="57" r="10" fill="url(#syncedGrad)" stroke="#2c3e50" stroke-width="1" filter="url(#shadow)"/>
<circle cx="100" cy="57" r="4" fill="white" opacity="0.4"/>
<text x="120" y="65" font-size="16" font-weight="bold" fill="#27ae60">Synced</text>
<text x="30" y="90" font-size="14" fill="#7f8c8d">📅 2025-11-20T03:36:12Z</text>
<text x="30" y="110" font-size="14" fill="#7f8c8d">🔄 Fork: fbb27caaec... | 📦 Official: fbb27caaec...</text>
<line x1="30" y1="135" x2="870" y2="135" stroke="#bdc3c7" stroke-width="1"/>
<text x="30" y="150" font-size="14" fill="#2c3e50">2025-11-14:</text>
<circle cx="138" cy="145" r="8" fill="#ecf0f1" stroke="#bdc3c7" stroke-width="1"/>
<text x="30" y="175" font-size="14" fill="#2c3e50">2025-11-15:</text>
<circle cx="138" cy="170" r="8" fill="#ecf0f1" stroke="#bdc3c7" stroke-width="1"/>
<text x="30" y="200" font-size="14" fill="#2c3e50">2025-11-16:</text>
<circle cx="138" cy="195" r="8" fill="#ecf0f1" stroke="#bdc3c7" stroke-width="1"/>
<text x="30" y="225" font-size="14" fill="#2c3e50">2025-11-17:</text>
<circle cx="138" cy="220" r="8" fill="#ecf0f1" stroke="#bdc3c7" stroke-width="1"/>
<text x="30" y="250" font-size="14" fill="#2c3e50">2025-11-18:</text>
<circle cx="138" cy="245" r="8" fill="#ecf0f1" stroke="#bdc3c7" stroke-width="1"/>
<text x="30" y="275" font-size="14" fill="#2c3e50">2025-11-19:</text>
<circle cx="138" cy="270" r="8" fill="#ecf0f1" stroke="#bdc3c7" stroke-width="1"/>
<text x="30" y="300" font-size="14" fill="#2c3e50">2025-11-20:</text>
<circle cx="138" cy="295" r="8" fill="url(#syncedGrad)" stroke="#2c3e50" stroke-width="1" filter="url(#shadow)"/>
<circle cx="138" cy="293" r="3" fill="white" opacity="0.4"/>
<circle cx="170" cy="295" r="8" fill="url(#syncedGrad)" stroke="#2c3e50" stroke-width="1" filter="url(#shadow)"/>
<circle cx="170" cy="293" r="3" fill="white" opacity="0.4"/>
<line x1="138" y1="295" x2="170" y2="295" stroke="#bdc3c7" stroke-width="2"/>
<circle cx="202" cy="295" r="8" fill="url(#syncedGrad)" stroke="#2c3e50" stroke-width="1" filter="url(#shadow)"/>
<circle cx="202" cy="293" r="3" fill="white" opacity="0.4"/>
<line x1="170" y1="295" x2="202" y2="295" stroke="#bdc3c7" stroke-width="2"/>
<text x="216" y="299" font-size="12" text-anchor="start" fill="#2c3e50">✅</text>
<circle cx="36" cy="336" r="6" fill="url(#syncedGrad)" stroke="#2c3e50" stroke-width="1"/>
<text x="46" y="340" font-size="12" fill="#2c3e50">Synced</text>
<circle cx="156" cy="336" r="6" fill="url(#unsyncedGrad)" stroke="#2c3e50" stroke-width="1"/>
<text x="166" y="340" font-size="12" fill="#2c3e50">Unsynced</text>
<circle cx="276" cy="336" r="6" fill="#ecf0f1" stroke="#bdc3c7" stroke-width="1"/>
<text x="286" y="340" font-size="12" fill="#2c3e50">No Data</text>
</svg>