<svg width="400" height="164" xmlns="http://www.w3.org/2000/svg" font-family="Arial, sans-serif">
<text x="20" y="25" font-size="18" font-weight="bold" fill="#333">NUR Sync Status</text>
<text x="20" y="45" font-size="12" fill="#999">Latest: No data available</text>
<text x="20" y="85" font-size="14" font-weight="bold" fill="#333">Last 7 Days Activity</text>
<rect x="118" y="100" width="20" height="20" fill="#BDBDBD" stroke="#000" stroke-width="0.5" rx="3" ry="3"/>
<text x="128.0" y="115.0" font-size="10" text-anchor="middle" fill="#666">-</text>
<rect x="142" y="100" width="20" height="20" fill="#BDBDBD" stroke="#000" stroke-width="0.5" rx="3" ry="3"/>
<text x="152.0" y="115.0" font-size="10" text-anchor="middle" fill="#666">-</text>
<rect x="166" y="100" width="20" height="20" fill="#BDBDBD" stroke="#000" stroke-width="0.5" rx="3" ry="3"/>
<text x="176.0" y="115.0" font-size="10" text-anchor="middle" fill="#666">-</text>
<rect x="190" y="100" width="20" height="20" fill="#BDBDBD" stroke="#000" stroke-width="0.5" rx="3" ry="3"/>
<text x="200.0" y="115.0" font-size="10" text-anchor="middle" fill="#666">-</text>
<rect x="214" y="100" width="20" height="20" fill="#BDBDBD" stroke="#000" stroke-width="0.5" rx="3" ry="3"/>
<text x="224.0" y="115.0" font-size="10" text-anchor="middle" fill="#666">-</text>
<rect x="238" y="100" width="20" height="20" fill="#BDBDBD" stroke="#000" stroke-width="0.5" rx="3" ry="3"/>
<text x="248.0" y="115.0" font-size="10" text-anchor="middle" fill="#666">-</text>
<rect x="262" y="100" width="20" height="20" fill="#BDBDBD" stroke="#000" stroke-width="0.5" rx="3" ry="3"/>
<text x="272.0" y="115.0" font-size="10" text-anchor="middle" fill="#666">-</text>
<text x="128" y="139" font-size="10" text-anchor="middle" fill="#666">Thu</text>
<text x="152" y="139" font-size="10" text-anchor="middle" fill="#666">Wed</text>
<text x="176" y="139" font-size="10" text-anchor="middle" fill="#666">Tue</text>
<text x="200" y="139" font-size="10" text-anchor="middle" fill="#666">Mon</text>
<text x="224" y="139" font-size="10" text-anchor="middle" fill="#666">Sun</text>
<text x="248" y="139" font-size="10" text-anchor="middle" fill="#666">Sat</text>
<text x="272" y="139" font-size="10" text-anchor="middle" fill="#666">Fri</text>
<rect x="20" y="139" width="12" height="12" fill="#4CAF50" stroke="#000" stroke-width="0.5" rx="2" ry="2"/>
<text x="40" y="149" font-size="10" fill="#333">Synced</text>
<rect x="100" y="139" width="12" height="12" fill="#F44336" stroke="#000" stroke-width="0.5" rx="2" ry="2"/>
<text x="120" y="149" font-size="10" fill="#333">Unsynced</text>
<rect x="190" y="139" width="12" height="12" fill="#BDBDBD" stroke="#000" stroke-width="0.5" rx="2" ry="2"/>
<text x="210" y="149" font-size="10" fill="#333">No data</text>
</svg>