<svg width="750" height="470" xmlns="http://www.w3.org/2000/svg" font-family="Segoe UI, sans-serif">
<defs>
<linearGradient id="syncedGrad" x1="0" y1="0" x2="0" y2="1">
<stop offset="0%" stop-color="#2ecc71"/>
<stop offset="100%" stop-color="#27ae60"/>
</linearGradient>
<linearGradient id="unsyncedGrad" x1="0" y1="0" x2="0" y2="1">
<stop offset="0%" stop-color="#e74c3c"/>
<stop offset="100%" stop-color="#c0392b"/>
</linearGradient>
<filter id="shadow" x="-50%" y="-50%" width="200%" height="200%">
<feDropShadow dx="1" dy="1" stdDeviation="1" flood-color="#888"/>
</filter>
</defs>
<rect width="100%" height="100%" fill="#f5f7fa"/>
<text x="30" y="35" font-size="24" font-weight="bold" fill="#2c3e50">NUR Sync Status</text>
<text x="30" y="70" font-size="16" font-weight="bold" fill="#2c3e50">Latest:</text>
<circle cx="100" cy="62" r="10" fill="url(#syncedGrad)" stroke="#2c3e50" stroke-width="1" filter="url(#shadow)"/>
<circle cx="100" cy="62" r="4" fill="white" opacity="0.4"/>
<text x="120" y="70" font-size="16" font-weight="bold" fill="#27ae60">Synced</text>
<text x="30" y="95" font-size="14" fill="#7f8c8d">📅 2025-11-20T02:00:42Z</text>
<text x="30" y="120" font-size="14" fill="#7f8c8d">🔄 Fork: 07786b36f5... | 📦 Official: 07786b36f5...</text>
<line x1="30" y1="140" x2="720" y2="140" stroke="#bdc3c7" stroke-width="1"/>
<text x="30" y="165" font-size="14" fill="#2c3e50">2025-11-14:</text>
<circle cx="178" cy="160" r="8" fill="#ecf0f1" stroke="#bdc3c7" stroke-width="1"/>
<text x="30" y="195" font-size="14" fill="#2c3e50">2025-11-15:</text>
<circle cx="178" cy="190" r="8" fill="#ecf0f1" stroke="#bdc3c7" stroke-width="1"/>
<text x="30" y="225" font-size="14" fill="#2c3e50">2025-11-16:</text>
<circle cx="178" cy="220" r="8" fill="#ecf0f1" stroke="#bdc3c7" stroke-width="1"/>
<text x="30" y="255" font-size="14" fill="#2c3e50">2025-11-17:</text>
<circle cx="178" cy="250" r="8" fill="#ecf0f1" stroke="#bdc3c7" stroke-width="1"/>
<text x="30" y="285" font-size="14" fill="#2c3e50">2025-11-18:</text>
<circle cx="178" cy="280" r="8" fill="#ecf0f1" stroke="#bdc3c7" stroke-width="1"/>
<text x="30" y="315" font-size="14" fill="#2c3e50">2025-11-19:</text>
<circle cx="178" cy="310" r="8" fill="#ecf0f1" stroke="#bdc3c7" stroke-width="1"/>
<text x="30" y="345" font-size="14" fill="#2c3e50">2025-11-20:</text>
<circle cx="178" cy="340" r="8" fill="url(#syncedGrad)" stroke="#2c3e50" stroke-width="1" filter="url(#shadow)"/>
<circle cx="178" cy="338" r="3" fill="white" opacity="0.4"/>
<text x="192" y="344" font-size="12" text-anchor="start" fill="#2c3e50">✅</text>
<circle cx="38" cy="438" r="8" fill="url(#syncedGrad)" stroke="#2c3e50" stroke-width="1"/>
<text x="52" y="442" font-size="14" fill="#2c3e50">Synced</text>
<circle cx="150" cy="438" r="8" fill="url(#unsyncedGrad)" stroke="#2c3e50" stroke-width="1"/>
<text x="166" y="442" font-size="14" fill="#2c3e50">Unsynced</text>
<circle cx="270" cy="438" r="8" fill="#ecf0f1" stroke="#bdc3c7" stroke-width="1"/>
<text x="286" y="442" font-size="14" fill="#2c3e50">No Data</text>
</svg>